<svg width="51" height="50" viewBox="0 0 51 50" fill="none" xmlns="http://www.w3.org/2000/svg">
<path d="M25.1823 29.5439L20.6371 24.9987L25.1823 20.4535L29.7275 24.9987L25.1823 29.5439ZM20.353 16.1924L14.6715 10.5108L25.1823 0L35.6931 10.5108L30.0116 16.1924L25.1823 11.3631L20.353 16.1924ZM10.6944 35.5095L0.183594 24.9987L10.6944 14.4879L16.3759 20.1694L11.5466 24.9987L16.3759 29.828L10.6944 35.5095ZM39.6702 35.5095L33.9887 29.828L38.818 24.9987L33.9887 20.1694L39.6702 14.4879L50.181 24.9987L39.6702 35.5095ZM25.1823 49.9974L14.6715 39.4866L20.353 33.8051L25.1823 38.6344L30.0116 33.8051L35.6931 39.4866L25.1823 49.9974Z" fill="#2555A1"/>
</svg>
