<svg width="59" height="43" viewBox="0 0 59 43" fill="none" xmlns="http://www.w3.org/2000/svg">
<path d="M0.183594 42.4103V31.8077C0.183594 30.3057 0.702678 29.0466 1.74085 28.0305C2.77901 27.0145 4.02703 26.5064 5.48488 26.5064H14.1657C15.0493 26.5064 15.8886 26.7273 16.6838 27.1691C17.479 27.6109 18.1196 28.2073 18.6056 28.9583C19.8867 30.6812 21.466 32.0286 23.3436 33.0005C25.2211 33.9724 27.2201 34.4584 29.3407 34.4584C31.5054 34.4584 33.5265 33.9724 35.404 33.0005C37.2815 32.0286 38.8388 30.6812 40.0758 28.9583C40.6501 28.2073 41.3238 27.6109 42.0969 27.1691C42.87 26.7273 43.6762 26.5064 44.5156 26.5064H53.1964C54.6985 26.5064 55.9575 27.0145 56.9736 28.0305C57.9897 29.0466 58.4977 30.3057 58.4977 31.8077V42.4103H39.9432V36.3801C38.397 37.4845 36.7293 38.3239 34.9401 38.8982C33.151 39.4725 31.2845 39.7596 29.3407 39.7596C27.441 39.7596 25.5856 39.4614 23.7743 38.865C21.963 38.2687 20.2843 37.4182 18.7381 36.3138V42.4103H0.183594ZM29.3407 31.8077C27.6619 31.8077 26.0715 31.4212 24.5695 30.6481C23.0675 29.8749 21.8084 28.8036 20.7923 27.4342C20.0413 26.3297 19.1026 25.4572 17.976 24.8166C16.8495 24.1761 15.6236 23.8558 14.2983 23.8558C15.2702 22.2212 17.3244 20.929 20.461 19.9792C23.5976 19.0294 26.5575 18.5545 29.3407 18.5545C32.1238 18.5545 35.0837 19.0294 38.2203 19.9792C41.3569 20.929 43.4112 22.2212 44.3831 23.8558C43.1019 23.8558 41.887 24.1761 40.7384 24.8166C39.5898 25.4572 38.64 26.3297 37.889 27.4342C36.9171 28.8478 35.6801 29.9302 34.1781 30.6812C32.6761 31.4322 31.0636 31.8077 29.3407 31.8077ZM8.13552 23.8558C5.92665 23.8558 4.04911 23.0827 2.50291 21.5365C0.956698 19.9903 0.183594 18.1127 0.183594 15.9039C0.183594 13.6508 0.956698 11.7622 2.50291 10.2381C4.04911 8.71399 5.92665 7.95193 8.13552 7.95193C10.3886 7.95193 12.2772 8.71399 13.8013 10.2381C15.3254 11.7622 16.0874 13.6508 16.0874 15.9039C16.0874 18.1127 15.3254 19.9903 13.8013 21.5365C12.2772 23.0827 10.3886 23.8558 8.13552 23.8558ZM50.5458 23.8558C48.3369 23.8558 46.4594 23.0827 44.9132 21.5365C43.367 19.9903 42.5939 18.1127 42.5939 15.9039C42.5939 13.6508 43.367 11.7622 44.9132 10.2381C46.4594 8.71399 48.3369 7.95193 50.5458 7.95193C52.7988 7.95193 54.6874 8.71399 56.2115 10.2381C57.7357 11.7622 58.4977 13.6508 58.4977 15.9039C58.4977 18.1127 57.7357 19.9903 56.2115 21.5365C54.6874 23.0827 52.7988 23.8558 50.5458 23.8558ZM29.3407 15.9039C27.1318 15.9039 25.2543 15.1308 23.708 13.5845C22.1618 12.0383 21.3887 10.1608 21.3887 7.95193C21.3887 5.69888 22.1618 3.8103 23.708 2.28618C25.2543 0.76206 27.1318 0 29.3407 0C31.5937 0 33.4823 0.76206 35.0064 2.28618C36.5305 3.8103 37.2926 5.69888 37.2926 7.95193C37.2926 10.1608 36.5305 12.0383 35.0064 13.5845C33.4823 15.1308 31.5937 15.9039 29.3407 15.9039Z" fill="#2555A1"/>
</svg>
