<svg width="65" height="64" viewBox="0 0 65 64" fill="none" xmlns="http://www.w3.org/2000/svg">
<path d="M35.4832 10.3199V10.3732C35.4832 12.1599 36.6832 13.6532 38.3632 14.1865C45.9632 16.5599 51.4832 23.6265 51.4832 31.9999C51.4832 33.3865 51.3232 34.6932 51.0298 35.9732C50.6565 37.6799 51.3498 39.4399 52.8698 40.3465L52.8965 40.3732C55.1898 41.7065 58.1765 40.5065 58.7898 37.9465C59.2432 36.0265 59.4832 34.0265 59.4832 31.9999C59.4832 19.9999 51.5365 9.8132 40.6032 6.47987C38.0698 5.70653 35.4832 7.6532 35.4832 10.3199ZM29.9898 50.4532C22.0165 49.3065 15.5365 42.8265 14.3632 34.8799C12.9232 25.2799 18.7898 16.8265 27.2432 14.1865C28.9498 13.6799 30.1498 12.1599 30.1498 10.3732V10.3199C30.1498 7.6532 27.5632 5.70653 25.0032 6.47987C12.9765 10.1599 4.5765 22.1065 6.38983 35.7065C7.96317 47.3865 17.4032 56.8265 29.0832 58.3999C37.4565 59.5199 45.1898 56.7732 50.7632 51.6532C52.7365 49.8399 52.3898 46.6132 50.0698 45.2799C48.5232 44.3732 46.6032 44.6665 45.2698 45.8665C41.3498 49.4399 35.9098 51.3332 29.9898 50.4532Z" fill="#2555A1"/>
</svg>
