<svg width="60" height="60" viewBox="0 0 60 60" fill="none" xmlns="http://www.w3.org/2000/svg">
<path d="M29.8165 19.3333C23.9232 19.3333 19.1498 24.1066 19.1498 30C19.1498 35.8933 23.9232 40.6666 29.8165 40.6666C35.7098 40.6666 40.4832 35.8933 40.4832 30C40.4832 24.1066 35.7098 19.3333 29.8165 19.3333ZM53.6565 27.3333C52.4298 16.2133 43.6032 7.38663 32.4832 6.15996V3.33329C32.4832 1.86663 31.2832 0.666626 29.8165 0.666626C28.3498 0.666626 27.1498 1.86663 27.1498 3.33329V6.15996C16.0298 7.38663 7.20315 16.2133 5.97649 27.3333H3.14982C1.68315 27.3333 0.483154 28.5333 0.483154 30C0.483154 31.4666 1.68315 32.6666 3.14982 32.6666H5.97649C7.20315 43.7866 16.0298 52.6133 27.1498 53.84V56.6666C27.1498 58.1333 28.3498 59.3333 29.8165 59.3333C31.2832 59.3333 32.4832 58.1333 32.4832 56.6666V53.84C43.6032 52.6133 52.4298 43.7866 53.6565 32.6666H56.4832C57.9498 32.6666 59.1498 31.4666 59.1498 30C59.1498 28.5333 57.9498 27.3333 56.4832 27.3333H53.6565ZM29.8165 48.6666C19.4965 48.6666 11.1498 40.32 11.1498 30C11.1498 19.68 19.4965 11.3333 29.8165 11.3333C40.1365 11.3333 48.4832 19.68 48.4832 30C48.4832 40.32 40.1365 48.6666 29.8165 48.6666Z" fill="#2555A1"/>
</svg>
