<svg width="43" height="43" viewBox="0 0 43 43" fill="none" xmlns="http://www.w3.org/2000/svg">
<path d="M6.72046 42.5148V36.2648H0.470459V32.0981H6.72046V23.7648H0.470459V19.5981H6.72046V11.2648H0.470459V7.09815H6.72046V0.848145H10.8871V7.09815H19.2205V0.848145H23.3871V7.09815H31.7205V0.848145H35.8871V7.09815H42.1371V11.2648H35.8871V19.5981H42.1371V23.7648H35.8871V32.0981H42.1371V36.2648H35.8871V42.5148H31.7205V36.2648H23.3871V42.5148H19.2205V36.2648H10.8871V42.5148H6.72046ZM10.8871 32.0981H19.2205V23.7648H10.8871V32.0981ZM23.3871 32.0981H31.7205V23.7648H23.3871V32.0981ZM10.8871 19.5981H19.2205V11.2648H10.8871V19.5981ZM23.3871 19.5981H31.7205V11.2648H23.3871V19.5981Z" fill="#2555A1"/>
</svg>
