<svg width="39" height="46" viewBox="0 0 39 46" fill="none" xmlns="http://www.w3.org/2000/svg">
<path d="M28.0352 45.4308H19.5538C18.953 45.4308 18.4494 45.2276 18.043 44.8212C17.6366 44.4148 17.4334 43.9112 17.4334 43.3104V30.5882C17.4334 29.9875 17.6366 29.4839 18.043 29.0775C18.4494 28.6711 18.953 28.4679 19.5538 28.4679H21.6741V22.1068H4.71119C3.54499 22.1068 2.54665 21.6915 1.71618 20.861C0.885698 20.0306 0.470459 19.0322 0.470459 17.866V9.38455C0.470459 8.21835 0.885698 7.22001 1.71618 6.38953C2.54665 5.55905 3.54499 5.14381 4.71119 5.14381H8.95193V3.02344C8.95193 2.42267 9.15513 1.91909 9.56154 1.51268C9.96794 1.10628 10.4715 0.903076 11.0723 0.903076H36.5167C37.1175 0.903076 37.6211 1.10628 38.0275 1.51268C38.4339 1.91909 38.6371 2.42267 38.6371 3.02344V11.5049C38.6371 12.1057 38.4339 12.6093 38.0275 13.0157C37.6211 13.4221 37.1175 13.6253 36.5167 13.6253H11.0723C10.4715 13.6253 9.96794 13.4221 9.56154 13.0157C9.15513 12.6093 8.95193 12.1057 8.95193 11.5049V9.38455H4.71119V17.866H21.6741C22.8403 17.866 23.8387 18.2813 24.6692 19.1117C25.4996 19.9422 25.9149 20.9406 25.9149 22.1068V28.4679H28.0352C28.636 28.4679 29.1396 28.6711 29.546 29.0775C29.9524 29.4839 30.1556 29.9875 30.1556 30.5882V43.3104C30.1556 43.9112 29.9524 44.4148 29.546 44.8212C29.1396 45.2276 28.636 45.4308 28.0352 45.4308ZM21.6741 41.1901H25.9149V32.7086H21.6741V41.1901ZM13.1927 9.38455H34.3963V5.14381H13.1927V9.38455Z" fill="#2555A1"/>
</svg>
