<svg width="46" height="59" viewBox="0 0 46 59" fill="none" xmlns="http://www.w3.org/2000/svg">
<path d="M3.02811 58.8911C2.00698 58.8911 1.20083 58.4746 0.609653 57.6416C0.0184743 56.8086 -0.142756 55.9083 0.125961 54.941L14.4755 3.10537C14.6904 2.40671 15.0667 1.85583 15.6041 1.45276C16.1415 1.04968 16.7596 0.848145 17.4582 0.848145C18.5331 0.848145 19.3661 1.26466 19.9573 2.09768C20.5485 2.9307 20.7097 3.83091 20.441 4.79829L18.8287 10.522H36.9671L38.9825 3.10537C39.1975 2.40671 39.5871 1.85583 40.1514 1.45276C40.7157 1.04968 41.3472 0.848145 42.0459 0.848145C43.067 0.848145 43.8732 1.26466 44.4643 2.09768C45.0555 2.9307 45.2168 3.83091 44.948 4.79829L30.5985 56.6339C30.3835 57.3326 30.0073 57.8834 29.4699 58.2865C28.9325 58.6896 28.3144 58.8911 27.6158 58.8911C26.5409 58.8911 25.7079 58.4746 25.1167 57.6416C24.5255 56.8086 24.3643 55.9083 24.633 54.941L26.2453 49.2173H8.10687L6.09149 56.6339C5.87651 57.3326 5.48687 57.8834 4.92257 58.2865C4.35826 58.6896 3.72678 58.8911 3.02811 58.8911ZM14.3949 26.645H32.4527L35.113 16.9712H17.0552L14.3949 26.645ZM9.96102 42.7681H28.0188L30.6791 33.0942H12.6213L9.96102 42.7681Z" fill="white"/>
</svg>
