<svg width="51" height="51" viewBox="0 0 51 51" fill="none" xmlns="http://www.w3.org/2000/svg">
<path d="M17.7355 23.2231L23.1105 17.7856L19.6105 14.2231L16.8605 16.9731L13.3605 13.4731L16.048 10.7231L13.2355 7.91064L7.79797 13.3481L17.7355 23.2231ZM38.2355 43.7856L43.673 38.3481L40.8605 35.5356L38.1105 38.2231L34.6105 34.7231L37.298 31.9731L33.7355 28.4731L28.3605 33.8481L38.2355 43.7856ZM13.8605 48.3481H3.23547V37.7231L14.173 26.7856L0.735474 13.3481L13.2355 0.848145L26.7355 14.3481L36.173 4.84814C36.673 4.34814 37.2355 3.97314 37.8605 3.72314C38.4855 3.47314 39.1313 3.34814 39.798 3.34814C40.4646 3.34814 41.1105 3.47314 41.7355 3.72314C42.3605 3.97314 42.923 4.34814 43.423 4.84814L46.7355 8.22314C47.2355 8.72314 47.6105 9.28564 47.8605 9.91064C48.1105 10.5356 48.2355 11.1815 48.2355 11.8481C48.2355 12.5148 48.1105 13.1502 47.8605 13.7544C47.6105 14.3586 47.2355 14.9106 46.7355 15.4106L37.298 24.9106L50.7355 38.3481L38.2355 50.8481L24.798 37.4106L13.8605 48.3481ZM8.23547 43.3481H11.7355L36.2355 18.9106L32.673 15.3481L8.23547 39.8481V43.3481Z" fill="#2555A1"/>
</svg>
