<svg width="30" height="39" viewBox="0 0 30 39" fill="none" xmlns="http://www.w3.org/2000/svg">
<path d="M17.2917 37.8302C17.0833 38.0038 16.8663 38.1427 16.6406 38.2468C16.4149 38.351 16.1632 38.4031 15.8854 38.4031C15.6076 38.4031 15.3299 38.3423 15.0521 38.2208C14.7743 38.0993 14.5312 37.9343 14.3229 37.726C12.8993 36.1982 11.849 34.6357 11.1719 33.0385C10.4948 31.4413 10.1562 29.7572 10.1562 27.9864C10.1562 26.7017 10.3472 25.3475 10.7292 23.9239C11.1111 22.5003 11.7708 20.66 12.7083 18.4031C13.5069 16.4239 14.0625 14.9048 14.375 13.8458C14.6875 12.7868 14.8437 11.8059 14.8437 10.9031C14.8437 9.72252 14.5833 8.62009 14.0625 7.59578C13.5417 6.57148 12.7257 5.53849 11.6146 4.49683C11.4062 4.28849 11.2413 4.04544 11.1198 3.76766C10.9983 3.48988 10.9375 3.2121 10.9375 2.93433C10.9375 2.65655 10.9896 2.40481 11.0938 2.17912C11.1979 1.95342 11.3368 1.73641 11.5104 1.52808C11.7188 1.31974 11.9531 1.16349 12.2135 1.05933C12.474 0.95516 12.7431 0.903076 13.0208 0.903076C13.2986 0.903076 13.559 0.95516 13.8021 1.05933C14.0451 1.16349 14.2708 1.30238 14.4792 1.47599C16.0069 2.8996 17.1441 4.39266 17.8906 5.95516C18.6372 7.51766 19.0104 9.16697 19.0104 10.9031C19.0104 12.1184 18.8281 13.3944 18.4635 14.7312C18.099 16.068 17.4653 17.8128 16.5625 19.9656C15.6944 22.0489 15.1042 23.6461 14.7917 24.7572C14.4792 25.8684 14.3229 26.9274 14.3229 27.9343C14.3229 29.1496 14.5747 30.3215 15.0781 31.45C15.5816 32.5784 16.3542 33.7156 17.3958 34.8614C17.5694 35.0697 17.7083 35.2954 17.8125 35.5385C17.9167 35.7815 17.9688 36.042 17.9688 36.3197C17.9688 36.5975 17.9167 36.8666 17.8125 37.127C17.7083 37.3875 17.5347 37.6218 17.2917 37.8302ZM27.4479 37.8302C27.2396 38.0038 27.0226 38.1427 26.7969 38.2468C26.5712 38.351 26.3194 38.4031 26.0417 38.4031C25.7639 38.4031 25.4861 38.3423 25.2083 38.2208C24.9306 38.0993 24.6875 37.9343 24.4792 37.726C23.0556 36.1982 22.0052 34.6444 21.3281 33.0645C20.651 31.4847 20.3125 29.8093 20.3125 28.0385C20.3125 26.7538 20.5035 25.3822 20.8854 23.9239C21.2674 22.4656 21.9271 20.6253 22.8646 18.4031C23.6632 16.4239 24.2188 14.9135 24.5312 13.8718C24.8438 12.8302 25 11.8579 25 10.9552C25 9.7746 24.7396 8.65481 24.2188 7.59578C23.6979 6.53676 22.8819 5.50377 21.7708 4.49683C21.5625 4.28849 21.4062 4.05412 21.3021 3.7937C21.1979 3.53328 21.1458 3.26419 21.1458 2.98641C21.1458 2.70863 21.1892 2.4569 21.276 2.2312C21.3628 2.00551 21.4931 1.78849 21.6667 1.58016C21.875 1.37183 22.1181 1.2069 22.3958 1.08537C22.6736 0.96384 22.9514 0.903076 23.2292 0.903076C23.5069 0.903076 23.7587 0.95516 23.9844 1.05933C24.2101 1.16349 24.4271 1.30238 24.6354 1.47599C26.1632 2.8996 27.3003 4.39266 28.0469 5.95516C28.7934 7.51766 29.1667 9.16697 29.1667 10.9031C29.1667 12.1184 28.9844 13.3944 28.6198 14.7312C28.2552 16.068 27.6215 17.8302 26.7187 20.0177C25.8507 22.101 25.2604 23.6982 24.9479 24.8093C24.6354 25.9204 24.4792 26.9621 24.4792 27.9343C24.4792 29.1496 24.7396 30.3388 25.2604 31.502C25.7812 32.6652 26.5625 33.8024 27.6042 34.9135C27.7778 35.1218 27.908 35.3475 27.9948 35.5906C28.0816 35.8336 28.125 36.0767 28.125 36.3197C28.125 36.5975 28.0729 36.8753 27.9688 37.1531C27.8646 37.4309 27.691 37.6565 27.4479 37.8302ZM7.13542 37.8302C6.92708 38.0038 6.71007 38.1427 6.48437 38.2468C6.25868 38.351 6.00694 38.4031 5.72917 38.4031C5.45139 38.4031 5.17361 38.3423 4.89583 38.2208C4.61806 38.0993 4.375 37.9343 4.16667 37.726C2.74306 36.1982 1.69271 34.6444 1.01562 33.0645C0.338542 31.4847 0 29.8093 0 28.0385C0 26.7538 0.190972 25.3822 0.572917 23.9239C0.954861 22.4656 1.61458 20.6253 2.55208 18.4031C3.35069 16.4239 3.90625 14.9135 4.21875 13.8718C4.53125 12.8302 4.6875 11.8579 4.6875 10.9552C4.6875 9.7746 4.42708 8.65481 3.90625 7.59578C3.38542 6.53676 2.56944 5.50377 1.45833 4.49683C1.21528 4.28849 1.04167 4.05412 0.9375 3.7937C0.833333 3.53328 0.78125 3.26419 0.78125 2.98641C0.78125 2.70863 0.833333 2.44822 0.9375 2.20516C1.04167 1.9621 1.18056 1.73641 1.35417 1.52808C1.5625 1.31974 1.79688 1.16349 2.05729 1.05933C2.31771 0.95516 2.58681 0.903076 2.86458 0.903076C3.14236 0.903076 3.40278 0.95516 3.64583 1.05933C3.88889 1.16349 4.11458 1.30238 4.32292 1.47599C5.85069 2.8996 6.98785 4.38398 7.73438 5.92912C8.4809 7.47426 8.85417 9.13224 8.85417 10.9031C8.85417 12.1184 8.68056 13.3944 8.33333 14.7312C7.98611 16.068 7.36111 17.8128 6.45833 19.9656C5.59028 22.0489 5 23.6461 4.6875 24.7572C4.375 25.8684 4.21875 26.9274 4.21875 27.9343C4.21875 29.1496 4.47049 30.3388 4.97396 31.502C5.47743 32.6652 6.25 33.8024 7.29167 34.9135C7.46528 35.1218 7.59549 35.3475 7.68229 35.5906C7.7691 35.8336 7.8125 36.0767 7.8125 36.3197C7.8125 36.5975 7.76042 36.8753 7.65625 37.1531C7.55208 37.4309 7.37847 37.6565 7.13542 37.8302Z" fill="#2555A1"/>
</svg>
