<svg width="64" height="65" viewBox="0 0 64 65" fill="none" xmlns="http://www.w3.org/2000/svg">
<path d="M32 21.7365C26.1067 21.7365 21.3333 26.5098 21.3333 32.4032C21.3333 38.2965 26.1067 43.0698 32 43.0698C37.8933 43.0698 42.6667 38.2965 42.6667 32.4032C42.6667 26.5098 37.8933 21.7365 32 21.7365ZM55.84 29.7365C54.6133 18.6165 45.7867 9.78982 34.6667 8.56316V5.73649C34.6667 4.26982 33.4667 3.06982 32 3.06982C30.5333 3.06982 29.3333 4.26982 29.3333 5.73649V8.56316C18.2133 9.78982 9.38666 18.6165 8.16 29.7365H5.33333C3.86666 29.7365 2.66666 30.9365 2.66666 32.4032C2.66666 33.8698 3.86666 35.0698 5.33333 35.0698H8.16C9.38666 46.1898 18.2133 55.0165 29.3333 56.2432V59.0698C29.3333 60.5365 30.5333 61.7365 32 61.7365C33.4667 61.7365 34.6667 60.5365 34.6667 59.0698V56.2432C45.7867 55.0165 54.6133 46.1898 55.84 35.0698H58.6667C60.1333 35.0698 61.3333 33.8698 61.3333 32.4032C61.3333 30.9365 60.1333 29.7365 58.6667 29.7365H55.84ZM32 51.0698C21.68 51.0698 13.3333 42.7232 13.3333 32.4032C13.3333 22.0832 21.68 13.7365 32 13.7365C42.32 13.7365 50.6667 22.0832 50.6667 32.4032C50.6667 42.7232 42.32 51.0698 32 51.0698Z" fill="#2555A1"/>
</svg>
