<svg width="64" height="65" viewBox="0 0 64 65" fill="none" xmlns="http://www.w3.org/2000/svg">
<path d="M34.6666 10.7231V10.7764C34.6666 12.5631 35.8666 14.0564 37.5466 14.5897C45.1466 16.9631 50.6666 24.0297 50.6666 32.4031C50.6666 33.7897 50.5066 35.0964 50.2133 36.3764C49.84 38.0831 50.5333 39.8431 52.0533 40.7497L52.08 40.7764C54.3733 42.1097 57.36 40.9097 57.9733 38.3497C58.4266 36.4297 58.6666 34.4297 58.6666 32.4031C58.6666 20.4031 50.72 10.2164 39.7866 6.88307C37.2533 6.10973 34.6666 8.0564 34.6666 10.7231ZM29.1733 50.8564C21.2 49.7097 14.72 43.2297 13.5466 35.2831C12.1066 25.6831 17.9733 17.2297 26.4266 14.5897C28.1333 14.0831 29.3333 12.5631 29.3333 10.7764V10.7231C29.3333 8.0564 26.7466 6.10973 24.1866 6.88307C12.16 10.5631 3.75996 22.5097 5.57329 36.1097C7.14662 47.7897 16.5866 57.2297 28.2666 58.8031C36.64 59.9231 44.3733 57.1764 49.9466 52.0564C51.9199 50.2431 51.5733 47.0164 49.2533 45.6831C47.7066 44.7764 45.7866 45.0697 44.4533 46.2697C40.5333 49.8431 35.0933 51.7364 29.1733 50.8564Z" fill="#2555A1"/>
</svg>
