<svg width="71" height="75" viewBox="0 0 71 75" fill="none" xmlns="http://www.w3.org/2000/svg">
<g clip-path="url(#clip0_2_14)">
<path fill-rule="evenodd" clip-rule="evenodd" d="M16.6585 4.71269L16.664 4.70899L16.6511 4.68864L16.6456 4.69234L16.6585 4.71269Z" fill="#326AB3"/>
<path fill-rule="evenodd" clip-rule="evenodd" d="M57.9232 54.825L57.9024 54.8364V54.7965V54.7793L52.0502 58.1048L57.9005 58.0953H57.9345L57.9364 54.8326L57.9232 54.825Z" fill="#3367AE"/>
<path fill-rule="evenodd" clip-rule="evenodd" d="M33.6806 54.8098V54.7927V54.7869V54.7603V54.7546L33.675 54.7584L27.6677 51.3303L27.645 51.317L27.6375 51.3151L27.6242 51.3056V51.3227V51.3322V51.355L27.6186 58.1523H27.7112L33.6768 58.1409H33.6976V58.1333H33.6787L33.6806 54.8098Z" fill="#295DA7"/>
<path fill-rule="evenodd" clip-rule="evenodd" d="M27.6186 51.3588V51.3284V51.3265L21.583 54.7546V54.766L21.6019 54.7774L21.583 54.7888L21.5943 54.7945V54.7888L27.4919 58.1523H27.5203H27.6129H27.6186L27.6242 51.355L27.6186 51.3588Z" fill="#2B5CA6"/>
<path fill-rule="evenodd" clip-rule="evenodd" d="M66.5371 56.7662L66.5579 56.8024L66.5598 56.8005L63.9645 52.3932L63.9588 58.082H64.2612H64.2121L66.5371 56.7662Z" fill="#326AB3"/>
<path fill-rule="evenodd" clip-rule="evenodd" d="M60.5507 46.4363L57.9478 41.9491L57.9421 47.9174L60.5507 46.4363Z" fill="#65A6DA"/>
<path fill-rule="evenodd" clip-rule="evenodd" d="M63.1233 50.8721L60.5507 46.4363L57.9421 47.9174L63.1233 50.8721Z" fill="#4984C5"/>
<path fill-rule="evenodd" clip-rule="evenodd" d="M57.9383 54.7603V54.7926L63.5467 51.6041L63.1233 50.8721L57.9421 47.9174L57.9383 54.7603Z" fill="#4780BF"/>
<path fill-rule="evenodd" clip-rule="evenodd" d="M57.9345 58.0953L63.6374 58.0839L57.9364 54.8326L57.9345 58.0953Z" fill="#295DA7"/>
<path fill-rule="evenodd" clip-rule="evenodd" d="M54.5359 36.0645L51.897 31.5146L51.8914 37.5665L54.5359 36.0645Z" fill="#6BAFE0"/>
<path fill-rule="evenodd" clip-rule="evenodd" d="M57.1425 40.5611L54.5359 36.0645L51.8914 37.5665L57.1425 40.5611Z" fill="#5B9FD6"/>
<path fill-rule="evenodd" clip-rule="evenodd" d="M51.8876 44.4646L57.5433 41.2513L57.1425 40.5611L51.8914 37.5665L51.8876 44.4646Z" fill="#579CD4"/>
<path fill-rule="evenodd" clip-rule="evenodd" d="M57.9421 47.9174L57.9478 41.9491L57.5433 41.2513L51.8876 44.4646L57.9421 47.9174Z" fill="#5D9DD4"/>
<path fill-rule="evenodd" clip-rule="evenodd" d="M51.8876 44.4646L51.8819 51.3056L51.9311 51.3341L57.9421 47.9174L51.8876 44.4646Z" fill="#4E8ECB"/>
<path fill-rule="evenodd" clip-rule="evenodd" d="M51.9311 51.3341L57.9383 54.7603L57.9421 47.9174L51.9311 51.3341Z" fill="#518AC8"/>
<path fill-rule="evenodd" clip-rule="evenodd" d="M57.9024 54.7793V54.7965L57.9156 54.8041L57.9383 54.7926V54.7603L57.9024 54.7793Z" fill="#518AC8"/>
<path fill-rule="evenodd" clip-rule="evenodd" d="M48.521 25.6908L45.8463 21.0801L45.8407 27.2138L48.521 25.6908Z" fill="#85CEF2"/>
<path fill-rule="evenodd" clip-rule="evenodd" d="M51.1617 30.2483L48.521 25.6908L45.8407 27.2138L51.1617 30.2483Z" fill="#75BBE7"/>
<path fill-rule="evenodd" clip-rule="evenodd" d="M45.835 34.1118L51.5284 30.8776L51.1617 30.2483L45.8407 27.2138L45.835 34.1118Z" fill="#6BAFE0"/>
<path fill-rule="evenodd" clip-rule="evenodd" d="M51.8914 37.5665L51.897 31.5146L51.5284 30.8776L45.835 34.1118L51.8914 37.5665Z" fill="#6AB1E1"/>
<path fill-rule="evenodd" clip-rule="evenodd" d="M46.5117 40.622L51.8914 37.5665L45.835 34.1118L45.8312 39.4508L46.5117 40.622Z" fill="#61A5DA"/>
<path fill-rule="evenodd" clip-rule="evenodd" d="M46.5174 40.622L51.897 37.5665L45.8407 34.1118L45.8369 39.4508L46.5174 40.622Z" fill="#61A5DA"/>
<path fill-rule="evenodd" clip-rule="evenodd" d="M47.1884 41.7837L51.8876 44.4646L51.8914 37.5665L46.5117 40.622L47.1884 41.7837Z" fill="#589AD3"/>
<path fill-rule="evenodd" clip-rule="evenodd" d="M49.5248 45.8069L51.8876 44.4646L47.1884 41.7837L49.5248 45.8069Z" fill="#336AB1"/>
<path fill-rule="evenodd" clip-rule="evenodd" d="M49.5248 45.8069L51.3016 48.8662H47.5041L51.88 51.3626V51.3056H51.8819L51.8876 44.4646L49.5248 45.8069Z" fill="#4984C5"/>
<path fill-rule="evenodd" clip-rule="evenodd" d="M45.8236 48.8662L45.8199 54.747L45.8255 54.7508L45.8426 54.7413V54.7603V54.7622V54.7698V54.7945L51.88 51.3626L47.5041 48.8662H45.8236Z" fill="#3B73B8"/>
<path fill-rule="evenodd" clip-rule="evenodd" d="M45.8426 54.7945V54.8212L51.6041 58.1067H51.8763L51.88 51.3626L45.8426 54.7945Z" fill="#3B73B8"/>
<path fill-rule="evenodd" clip-rule="evenodd" d="M45.8388 58.1181H45.8161L51.6041 58.1067L45.8425 54.8212L45.8388 58.1181Z" fill="#3164AD"/>
<path fill-rule="evenodd" clip-rule="evenodd" d="M42.5044 15.319L39.7956 10.6474L39.7918 16.861L42.5044 15.319Z" fill="#B6E3F7"/>
<path fill-rule="evenodd" clip-rule="evenodd" d="M45.1828 19.9355L42.5044 15.319L39.7918 16.861L45.1828 19.9355Z" fill="#B9E4F2"/>
<path fill-rule="evenodd" clip-rule="evenodd" d="M39.7862 23.759L45.5136 20.504L45.1828 19.9355L39.7918 16.861L39.7862 23.759Z" fill="#A8DEF3"/>
<path fill-rule="evenodd" clip-rule="evenodd" d="M45.8407 27.2138L45.8463 21.0801L45.5136 20.504L39.7862 23.759L45.8407 27.2138Z" fill="#94D6F3"/>
<path fill-rule="evenodd" clip-rule="evenodd" d="M45.8407 27.2138L39.7862 23.759L39.7805 30.6571L45.8407 27.2138Z" fill="#9FDCF5"/>
<path fill-rule="evenodd" clip-rule="evenodd" d="M45.835 34.1118L45.8407 27.2138L39.7805 30.6571L45.835 34.1118Z" fill="#84C8EE"/>
<path fill-rule="evenodd" clip-rule="evenodd" d="M39.7748 37.557L45.835 34.1118L39.7805 30.6571L39.7748 37.557Z" fill="#72B4E3"/>
<path fill-rule="evenodd" clip-rule="evenodd" d="M43.0261 39.4108C43.4155 38.5419 43.8011 37.6065 44.1753 36.5988L45.8331 39.4508L45.8369 34.1118L39.7748 37.557L43.0261 39.4108Z" fill="#5C9ED5"/>
<path fill-rule="evenodd" clip-rule="evenodd" d="M43.0261 39.4108L39.7748 37.557L39.7691 44.4551L40.6368 43.9626C41.4042 42.7173 42.2227 41.2076 43.0261 39.4108Z" fill="#4883C3"/>
<path fill-rule="evenodd" clip-rule="evenodd" d="M40.6349 43.9626L39.7673 44.4551L40.1737 44.687C40.3249 44.457 40.478 44.2155 40.633 43.9626" fill="#3A74B9"/>
<path fill-rule="evenodd" clip-rule="evenodd" d="M39.7654 48.8662L39.7635 51.3455L39.7843 51.3322V51.3417V51.3398L39.7862 51.3056L39.8164 51.3227L44.1394 48.8662H39.7654Z" fill="#3369B2"/>
<path fill-rule="evenodd" clip-rule="evenodd" d="M39.7691 44.4551V45.2955C39.9015 45.1015 40.0376 44.8981 40.1756 44.687L39.7691 44.4551Z" fill="#3369B2"/>
<path fill-rule="evenodd" clip-rule="evenodd" d="M44.1394 48.8662L39.8164 51.3227L45.8199 54.747L45.8236 48.8662H44.1394Z" fill="#3065AD"/>
<path fill-rule="evenodd" clip-rule="evenodd" d="M45.8255 54.7506L45.8421 54.7598V54.7413L45.8255 54.7506Z" fill="#2B60A8"/>
<path fill-rule="evenodd" clip-rule="evenodd" d="M45.8388 58.1181L45.8426 54.8212V54.7946V54.7698V54.7622V54.7603L45.8199 54.7736L45.7896 54.7908L39.9128 58.1295L45.8104 58.1181H45.8161H45.8388Z" fill="#2B60A8"/>
<path fill-rule="evenodd" clip-rule="evenodd" d="M39.2021 9.62261L36.4896 4.94532L33.7487 6.51203L39.2021 9.62261Z" fill="#D3EEFB"/>
<path fill-rule="evenodd" clip-rule="evenodd" d="M39.2021 9.62261L33.7487 6.51202L33.7411 6.51773L33.7354 13.3968V13.4063L39.497 10.1322L39.2021 9.62261Z" fill="#CBEBF8"/>
<path fill-rule="evenodd" clip-rule="evenodd" d="M39.7956 10.6474L39.497 10.1322L33.7354 13.4063L39.7918 16.861L39.7956 10.6474Z" fill="#ADDEF7"/>
<path fill-rule="evenodd" clip-rule="evenodd" d="M33.7354 13.4063L33.7298 18.2395L34.6314 19.7929L39.7918 16.861L33.7354 13.4063Z" fill="#9FDCF5"/>
<path fill-rule="evenodd" clip-rule="evenodd" d="M39.7918 16.861L34.6314 19.7929L35.5198 21.3272L39.7862 23.759L39.7918 16.861Z" fill="#A8DCF4"/>
<path fill-rule="evenodd" clip-rule="evenodd" d="M39.7862 23.759L35.5217 21.3272L35.6748 21.5915C35.0057 21.4641 33.9037 21.4413 33.9037 21.4413H33.7279L33.7241 27.2043L39.7862 23.759Z" fill="#9CD9F6"/>
<path fill-rule="evenodd" clip-rule="evenodd" d="M39.7862 23.759L33.7241 27.2043L39.7805 30.6571L39.7862 23.759Z" fill="#82C4EC"/>
<path fill-rule="evenodd" clip-rule="evenodd" d="M34.5615 33.6232L39.7786 30.659L33.7222 27.2043L33.7184 31.8682C34.0889 32.3208 34.3895 32.895 34.5615 33.6232Z" fill="#6AAADC"/>
<path fill-rule="evenodd" clip-rule="evenodd" d="M34.6787 34.6499L39.7729 37.5551L39.7786 30.6571L34.5615 33.6213C34.5842 33.7144 34.6031 33.8095 34.622 33.9084C34.622 33.9084 34.6806 34.1765 34.6806 34.6499" fill="#67AADC"/>
<path fill-rule="evenodd" clip-rule="evenodd" d="M33.7146 38.3062V41.0004L39.7748 37.5551L34.6806 34.6499C34.6806 35.4142 34.5237 36.7185 33.7146 38.3062Z" fill="#4E8ECB"/>
<path fill-rule="evenodd" clip-rule="evenodd" d="M33.7128 41.0004L39.7691 44.4551L39.7748 37.557L33.7128 41.0004Z" fill="#4780BF"/>
<path fill-rule="evenodd" clip-rule="evenodd" d="M33.7071 47.9003L39.7692 44.4551L33.7128 41.0004L33.7071 47.9003Z" fill="#3871B7"/>
<path fill-rule="evenodd" clip-rule="evenodd" d="M36.7485 48.8662C36.7485 48.8662 38.0452 47.7995 39.7673 45.2955V44.4551L33.7052 47.9003L39.754 51.3512L39.7616 51.3474V48.8681H36.7466L36.7485 48.8662Z" fill="#336AB1"/>
<path fill-rule="evenodd" clip-rule="evenodd" d="M33.7014 54.7698L39.7559 51.3493L33.7071 47.9003L33.7014 54.7698Z" fill="#3065AD"/>
<path fill-rule="evenodd" clip-rule="evenodd" d="M39.7843 51.3322L39.7635 51.3455L39.7559 51.3493L33.7014 54.7698L33.6995 54.7984L39.5612 58.1238H39.5518L39.5631 58.1295H39.7805L39.7843 51.3664V51.3417V51.3322Z" fill="#2F63AC"/>
<path fill-rule="evenodd" clip-rule="evenodd" d="M33.7052 0.785202L31.1779 5.0594L28.6091 9.40776L28.611 9.41346L33.6976 6.52153L33.7052 0.785202Z" fill="#D3EEFB"/>
<path fill-rule="evenodd" clip-rule="evenodd" d="M29.541 11.0144L31.624 14.606L33.7354 13.4063L29.541 11.0144Z" fill="#BFE4F5"/>
<path fill-rule="evenodd" clip-rule="evenodd" d="M31.624 14.606L33.7298 18.2395L33.7354 13.4063L31.624 14.606Z" fill="#9CD9F6"/>
<path fill-rule="evenodd" clip-rule="evenodd" d="M31.7563 21.4261L27.6696 21.3976L27.6677 23.7495L31.7563 21.4261Z" fill="#8FCEF1"/>
<path fill-rule="evenodd" clip-rule="evenodd" d="M33.7241 27.2043L33.7279 21.4394L31.7563 21.4261L27.6677 23.7495L33.7241 27.2043Z" fill="#8FCEF1"/>
<path fill-rule="evenodd" clip-rule="evenodd" d="M28.4919 30.1761L33.7241 27.2043L27.6677 23.7495L27.662 30.1761H28.4919Z" fill="#7AB9E5"/>
<path fill-rule="evenodd" clip-rule="evenodd" d="M29.7092 30.1761C29.7092 30.1761 32.2592 30.0867 33.7184 31.8682L33.7222 27.2043L28.4919 30.1761H29.7092Z" fill="#6CADDE"/>
<path fill-rule="evenodd" clip-rule="evenodd" d="M32.4425 40.2779L33.7109 41.0023V38.3081C33.399 38.926 32.985 39.5877 32.4425 40.2779Z" fill="#4C86C5"/>
<path fill-rule="evenodd" clip-rule="evenodd" d="M28.3066 44.0729L33.7128 41.0004L32.4444 40.276C32.4444 40.276 30.9549 42.2876 28.3066 44.071" fill="#417DBF"/>
<path fill-rule="evenodd" clip-rule="evenodd" d="M28.3066 44.0729C28.1081 44.206 27.904 44.3391 27.6923 44.4684L33.7071 47.8984L33.7128 41.0004L28.3066 44.0729Z" fill="#376FB6"/>
<path fill-rule="evenodd" clip-rule="evenodd" d="M27.6904 44.4684L27.6507 44.495L27.645 51.3113L21.617 47.8737L21.5886 47.8566V47.8908L21.583 54.7546L27.6186 51.3265L27.6242 51.3227V51.3056L27.6375 51.3151L27.645 51.3113V51.317L27.6677 51.3303L33.7071 47.9003L27.6904 44.4684Z" fill="#3367AE"/>
<path fill-rule="evenodd" clip-rule="evenodd" d="M27.6677 51.3303L33.675 54.7584L33.6806 54.7546V54.7603V54.7869L33.6995 54.7983L33.7014 54.7698L33.7071 47.9003L27.6677 51.3303Z" fill="#3065AD"/>
<path fill-rule="evenodd" clip-rule="evenodd" d="M27.6696 21.3976L23.4921 21.3691L27.6677 23.7495L27.6696 21.3976Z" fill="#86C3EA"/>
<path fill-rule="evenodd" clip-rule="evenodd" d="M27.6677 23.7495L23.4921 21.3691L21.668 21.3558L21.6208 21.4375L21.617 27.1872L27.6677 23.7495Z" fill="#6FADDE"/>
<path fill-rule="evenodd" clip-rule="evenodd" d="M27.662 30.1761L27.6677 23.7495L21.617 27.1872V27.2005L26.8322 30.1761H27.662Z" fill="#72B3E2"/>
<path fill-rule="evenodd" clip-rule="evenodd" d="M24.8607 30.1761H26.8322L21.617 27.2005V27.2176L21.6057 27.2119L21.6 34.0928L23.1576 33.2068L24.8607 30.1761Z" fill="#73B1E0"/>
<path fill-rule="evenodd" clip-rule="evenodd" d="M23.1576 33.2068L21.6 34.0928L22.4033 34.551L23.1576 33.2068Z" fill="#5A9BD3"/>
<path fill-rule="evenodd" clip-rule="evenodd" d="M22.4033 34.551L21.6 34.0928L21.5981 35.9865L22.4033 34.551Z" fill="#4984C5"/>
<path fill-rule="evenodd" clip-rule="evenodd" d="M24.6414 45.9438C24.6414 45.9438 23.2256 46.4363 21.5886 46.48V47.8585L21.617 47.8756L25.9929 45.3886C25.562 45.5902 25.1121 45.7784 24.6414 45.9457" fill="#326AB3"/>
<path fill-rule="evenodd" clip-rule="evenodd" d="M27.6375 51.3151L27.645 51.317V51.3113L27.6375 51.3151Z" fill="#3267B0"/>
<path fill-rule="evenodd" clip-rule="evenodd" d="M21.617 47.8737L27.645 51.3113L27.6507 44.495C27.1347 44.8106 26.5827 45.1129 25.9929 45.3886L21.617 47.8756V47.8737Z" fill="#3267B0"/>
<path fill-rule="evenodd" clip-rule="evenodd" d="M27.6186 51.3284L27.6243 51.3322V51.3227L27.6186 51.3265V51.3284Z" fill="#3267B0"/>
<path fill-rule="evenodd" clip-rule="evenodd" d="M19.0897 25.7783L16.6097 30.0335L21.5905 27.2024L19.0897 25.7783Z" fill="#77B0DF"/>
<path fill-rule="evenodd" clip-rule="evenodd" d="M21.6057 27.2119L21.5905 27.2024L16.6097 30.0335L16.0785 30.9442L21.6 34.0928L21.6057 27.2119Z" fill="#6AA4D8"/>
<path fill-rule="evenodd" clip-rule="evenodd" d="M21.6 34.0928L16.0785 30.9442L15.5417 31.8625L13.0579 36.1234L15.5379 37.538L21.6 34.0928Z" fill="#5993CD"/>
<path fill-rule="evenodd" clip-rule="evenodd" d="M21.5981 35.9865L21.6 34.0928L15.5379 37.538L19.4678 39.7797L21.5981 35.9865Z" fill="#4C86C5"/>
<path fill-rule="evenodd" clip-rule="evenodd" d="M19.4678 39.7797L15.5379 37.538L15.5323 44.4361L17.4717 43.3333L19.4678 39.7797Z" fill="#457EBD"/>
<path fill-rule="evenodd" clip-rule="evenodd" d="M17.4717 43.3333L15.5323 44.4361L16.5322 45.0065L17.4717 43.3333Z" fill="#3568AF"/>
<path fill-rule="evenodd" clip-rule="evenodd" d="M21.4525 46.4819H19.1181L21.5867 47.8908V47.8585V46.48C21.5433 46.48 21.4979 46.4819 21.4507 46.4819" fill="#3568AF"/>
<path fill-rule="evenodd" clip-rule="evenodd" d="M19.1181 46.4819H15.7043L16.5322 45.0065L15.5323 44.4361L15.5266 51.3189L15.5493 51.3056V51.3227L21.5886 47.8908L19.1181 46.4819Z" fill="#2B60A8"/>
<path fill-rule="evenodd" clip-rule="evenodd" d="M21.583 54.7546L21.5886 47.8908L15.5493 51.3227V51.3474L21.583 54.7888V54.766V54.7546Z" fill="#285DA8"/>
<path fill-rule="evenodd" clip-rule="evenodd" d="M15.5436 58.1751H15.623L21.583 54.7888L15.5493 51.3474L15.5436 58.1751Z" fill="#2555A1"/>
<path fill-rule="evenodd" clip-rule="evenodd" d="M21.5792 58.1637L21.583 54.7888L15.623 58.1751L21.5792 58.1637Z" fill="#2354A1"/>
<path fill-rule="evenodd" clip-rule="evenodd" d="M13.0579 36.1234L10.5949 40.3463L15.5379 37.538L13.0579 36.1234Z" fill="#4981C2"/>
<path fill-rule="evenodd" clip-rule="evenodd" d="M15.5379 37.538L10.5949 40.3463L10.0373 41.3027L15.5323 44.4361L15.5379 37.538Z" fill="#437BBD"/>
<path fill-rule="evenodd" clip-rule="evenodd" d="M15.5323 44.4361L10.0373 41.3027L9.47398 42.2685L9.4702 47.8813L15.5323 44.4361Z" fill="#2D64AE"/>
<path fill-rule="evenodd" clip-rule="evenodd" d="M9.4702 47.8813L15.5115 51.3265L15.5266 51.3189L15.5323 44.4361L9.4702 47.8813Z" fill="#2F63AC"/>
<path fill-rule="evenodd" clip-rule="evenodd" d="M9.46452 54.7603V54.7736L9.49477 54.7565L9.48721 54.7508L15.5115 51.3265L9.47019 47.8813L9.46452 54.7603Z" fill="#2B59A4"/>
<path fill-rule="evenodd" clip-rule="evenodd" d="M9.49666 54.7565V54.7606H9.49869V54.7565H9.49666Z" fill="#2B59A4"/>
<path fill-rule="evenodd" clip-rule="evenodd" d="M9.47398 42.2686L7.01664 46.4819L9.4702 47.8813L9.47398 42.2686Z" fill="#3065AD"/>
<path fill-rule="evenodd" clip-rule="evenodd" d="M7.01664 46.4819L4.58199 50.6591L9.47019 47.8813L7.01664 46.4819Z" fill="#295DA7"/>
<path fill-rule="evenodd" clip-rule="evenodd" d="M9.47019 47.8813L4.58198 50.6591L4.00546 51.6459L9.46452 54.7603L9.47019 47.8813Z" fill="#2158A3"/>
<path fill-rule="evenodd" clip-rule="evenodd" d="M9.44751 54.7698L9.45885 54.7755L9.46452 54.7736V54.7603L9.44751 54.7698Z" fill="#2158A3"/>
<path fill-rule="evenodd" clip-rule="evenodd" d="M9.49477 54.7565L9.46453 54.7736L9.45886 54.7755L4.86742 57.3728L3.41381 58.1979L9.49288 58.1865L9.49666 54.7603V54.7565H9.49477Z" fill="#2555A1"/>
<path fill-rule="evenodd" clip-rule="evenodd" d="M33.6976 6.52153L33.7317 6.50252L33.7411 6.49871V6.50822V6.51773L33.7487 6.51202L36.4895 4.94532L33.8734 0.5L33.7052 0.7852L33.6976 6.52153Z" fill="#ADE0F6"/>
<path fill-rule="evenodd" clip-rule="evenodd" d="M33.7411 6.51773V6.50822V6.49871L33.7317 6.50252L33.6976 6.52153L28.611 9.41346L29.5315 11.0011L33.7354 13.3968L33.7411 6.51773Z" fill="#A7DFF8"/>
<path fill-rule="evenodd" clip-rule="evenodd" d="M21.6057 27.2119L21.617 27.2176V27.2005V27.1872L21.6208 21.4375L19.0897 25.7783L21.5905 27.2024L21.6057 27.2119Z" fill="#86C2E9"/>
<path fill-rule="evenodd" clip-rule="evenodd" d="M45.8199 54.7736L45.8426 54.7603L45.8255 54.7508L45.8199 54.747L39.8164 51.3227L39.7862 51.3056L39.7843 51.3398V51.3664L39.7805 58.1295H39.9128L45.7896 54.7908L45.8199 54.7736Z" fill="#3065AD"/>
<path fill-rule="evenodd" clip-rule="evenodd" d="M57.9383 54.7603L51.9311 51.3341L51.8819 51.3056H51.88V51.3626L51.8763 58.1067L52.0502 58.1048L57.9024 54.7793L57.9383 54.7603Z" fill="#3065AD"/>
<path fill-rule="evenodd" clip-rule="evenodd" d="M63.9645 52.3228L63.5467 51.6041L57.9383 54.7926L57.9156 54.8041L57.9024 54.8117L57.9232 54.825L57.9364 54.8326L63.6374 58.0839L63.9588 58.082L63.9645 52.3932V52.3228Z" fill="#3065AD"/>
<path fill-rule="evenodd" clip-rule="evenodd" d="M67.3008 58.0763L66.5636 56.8119L66.5579 56.8024L66.5371 56.7662L64.2121 58.082H64.2612H64.2971H64.3255L67.3008 58.0763Z" fill="#3673B8"/>
<path fill-rule="evenodd" clip-rule="evenodd" d="M4.86742 57.3728L9.44752 54.7698L9.46453 54.7603L4.00546 51.6459L3.41759 52.6536L3.41381 58.1979L4.86742 57.3728Z" fill="#295DA7"/>
<path fill-rule="evenodd" clip-rule="evenodd" d="M15.5493 51.3227V51.3056L15.5266 51.3189L15.5115 51.3265L9.48721 54.7508L9.49477 54.7565H9.49666H9.49855V54.7546L15.4944 58.1751H15.5436L15.5493 51.3474V51.3227Z" fill="#2B5CA6"/>
<path fill-rule="evenodd" clip-rule="evenodd" d="M21.5943 54.7946L21.5905 58.1637L27.4919 58.1523L21.5943 54.7888V54.7946Z" fill="#3164AD"/>
<path fill-rule="evenodd" clip-rule="evenodd" d="M33.6995 54.7983L33.6806 54.7869V54.7945V54.8098L33.6787 58.1333H33.6976L39.5518 58.1238H39.5612L33.6995 54.7983Z" fill="#3164AD"/>
<path fill-rule="evenodd" clip-rule="evenodd" d="M9.49855 54.7565V54.7603L9.49477 58.1865L15.4944 58.1751L9.49855 54.7546V54.7565Z" fill="#2555A1"/>
<path fill-rule="evenodd" clip-rule="evenodd" d="M3.41759 52.6536L0.986717 56.8214L3.40247 58.1979H3.41381L3.41759 52.6536Z" fill="#2B5CA6"/>
<path fill-rule="evenodd" clip-rule="evenodd" d="M0.181465 58.2055L3.38923 58.1979L0.982935 56.8271L0.181465 58.2055Z" fill="#3765AF"/>
<path fill-rule="evenodd" clip-rule="evenodd" d="M23.2351 48.7958H21.5868L21.5886 47.8908V47.8566L21.617 47.8737L23.2351 48.7958Z" fill="#234060"/>
<mask id="mask0_2_14" style="mask-type:luminance" maskUnits="userSpaceOnUse" x="21" y="47" width="3" height="2">
<path d="M23.2351 48.7958H21.5868L21.5886 47.8908V47.8566L21.617 47.8737L23.2351 48.7958Z" fill="white"/>
</mask>
<g mask="url(#mask0_2_14)">
<path d="M23.2729 47.7881H21.5811V48.8053H23.2729V47.7881Z" fill="#234060"/>
</g>
<path fill-rule="evenodd" clip-rule="evenodd" d="M44.3644 27.5712C44.0298 26.5882 43.2586 25.6699 43.0582 25.3961C42.3947 24.4302 41.4042 23.8332 40.6198 23.3027C40.3703 23.1335 40.1207 22.9833 39.8731 22.8502C38.5291 22.122 37.2816 21.89 36.7221 21.8178C36.5236 21.7931 36.4121 21.7874 36.4121 21.7874L34.794 21.9205H33.0814L33.915 26.3753L34.2231 27.2385L34.7675 28.7615L36.0642 32.3892L36.7996 34.4465L37.3024 35.8534L40.0886 36.0246L43.9731 36.5493C44.0241 36.3877 44.2113 36.1329 44.2585 35.9808C44.5439 35.0625 44.6706 34.7754 44.8199 34.2202C44.9314 33.8076 45.1148 31.9158 45.1148 31.9158C45.1999 29.3128 44.7141 28.6055 44.3625 27.5712" fill="#6CADDE"/>
<path fill-rule="evenodd" clip-rule="evenodd" d="M40.6784 23.2552C40.3816 23.0689 40.0848 22.9053 39.7918 22.7589V23.7609L40.6784 23.2571V23.2552Z" fill="#A8DEF3"/>
<path fill-rule="evenodd" clip-rule="evenodd" d="M43.4741 25.86C43.3814 25.744 43.3266 25.6851 43.3266 25.6851C42.5384 24.6242 41.6103 23.8389 40.6784 23.2552L39.7918 23.759L43.4741 25.86Z" fill="#94D6F3"/>
<path fill-rule="evenodd" clip-rule="evenodd" d="M39.7843 30.6571L44.5874 27.9268C44.1905 26.8487 43.7103 26.1585 43.4722 25.8581L39.7899 23.7571L39.7843 30.6552V30.6571Z" fill="#9FDCF5"/>
<path fill-rule="evenodd" clip-rule="evenodd" d="M45.0316 33.6498C45.1696 32.9634 45.1791 32.6193 45.1791 32.6193C45.3284 30.6248 45.0052 29.0619 44.5893 27.9287L39.7862 30.659L45.0335 33.6517L45.0316 33.6498Z" fill="#84C8EE"/>
<path fill-rule="evenodd" clip-rule="evenodd" d="M39.7786 37.2966L40.1737 37.3327L44.7367 34.7393C44.8691 34.2867 44.9636 33.9312 45.0297 33.6498L39.7824 30.6571L39.7767 37.2966H39.7786Z" fill="#72B4E3"/>
<path fill-rule="evenodd" clip-rule="evenodd" d="M43.7727 37.6521C43.8389 37.4848 43.9069 37.3137 43.9731 37.1406C44.3133 36.1329 44.5591 35.3477 44.7367 34.7374L40.1737 37.3308L43.7727 37.6521Z" fill="#5C9ED5"/>
<path fill-rule="evenodd" clip-rule="evenodd" d="M39.7918 22.757C38.1946 21.9585 36.7145 21.7037 36.0491 21.6238L39.7918 23.759V22.757Z" fill="#A8DCF4"/>
<path fill-rule="evenodd" clip-rule="evenodd" d="M39.7899 23.759L36.0472 21.6238C35.8109 21.5953 35.6786 21.5896 35.6786 21.5896L33.7317 21.5212L33.7279 26.0578V27.2024L39.7899 23.7571V23.759Z" fill="#9CD9F6"/>
<path fill-rule="evenodd" clip-rule="evenodd" d="M39.7899 23.759L33.7279 27.2043L39.7843 30.6571L39.7899 23.759Z" fill="#82C4EC"/>
<path fill-rule="evenodd" clip-rule="evenodd" d="M33.7279 27.2043L33.726 29.2425L35.2684 33.2239L39.7843 30.6571L33.7279 27.2043Z" fill="#6AAADC"/>
<path fill-rule="evenodd" clip-rule="evenodd" d="M35.2684 33.2239L36.1417 35.4827L39.2399 37.249L39.7786 37.2966L39.7843 30.6571L35.2684 33.2239Z" fill="#67AADC"/>
<path fill-rule="evenodd" clip-rule="evenodd" d="M36.7391 37.0247L39.2399 37.249L36.1417 35.4827L36.7391 37.0247Z" fill="#4E8ECB"/>
<path fill-rule="evenodd" clip-rule="evenodd" d="M32.7128 26.6244L33.7279 27.2043L33.7336 21.5231L31.5635 21.5383L30.8925 21.9205L32.7128 26.6244Z" fill="#8FCEF1"/>
<path fill-rule="evenodd" clip-rule="evenodd" d="M32.7128 26.6244L33.0795 27.5712L33.7279 27.2043L32.7128 26.6244Z" fill="#7AB9E5"/>
<path fill-rule="evenodd" clip-rule="evenodd" d="M33.0795 27.5712L33.726 29.2425L33.7279 27.2043L33.0795 27.5712Z" fill="#6CADDE"/>
<path fill-rule="evenodd" clip-rule="evenodd" d="M7.79543 68.3073C6.97127 68.9044 5.79931 69.1725 4.5026 69.1725H0V60.1183H4.5026C5.79931 60.1183 6.97316 60.3864 7.79543 60.9834C9.19611 62.0006 9.05623 63.2479 9.05623 64.6074C9.05623 65.9668 9.19611 67.2901 7.79543 68.3073ZM6.09608 62.2535C5.67645 61.8846 5.11504 61.6945 4.27387 61.6945H2.43465V67.5963H4.27387C5.11504 67.5963 5.67456 67.4061 6.09608 67.0373C6.55164 66.6304 6.62158 65.982 6.62158 64.6074C6.62158 63.2327 6.55164 62.6623 6.09608 62.2554V62.2535Z" fill="#213F7B"/>
<path fill-rule="evenodd" clip-rule="evenodd" d="M11.5438 69.1725V60.1164H19.7589V61.6945H13.9785V63.8183H18.9007V65.3945H13.9785V67.5943H19.7589V69.1725H11.5438Z" fill="#213F7B"/>
<path fill-rule="evenodd" clip-rule="evenodd" d="M25.5752 69.2485C23.6831 69.2485 22.2465 68.9557 21.0216 68.0526L22.598 66.908C23.3863 67.4803 24.4543 67.6704 25.6111 67.6704C27.0477 67.6704 27.8189 67.2768 27.8189 66.5505C27.8189 66.233 27.6961 65.9649 27.4333 65.7881C27.1876 65.6227 26.9078 65.5333 26.3294 65.4706L24.8229 65.3184C23.7549 65.2044 22.9666 64.9629 22.4052 64.5674C21.8098 64.1358 21.5111 63.5502 21.5111 62.7878C21.5111 61.1716 23.1576 60.0403 25.855 60.0403C27.5713 60.0403 28.8151 60.3465 29.8831 61.0956L28.3425 62.2022C27.5543 61.6546 26.6092 61.5785 25.785 61.5785C24.4883 61.5785 23.8588 62.0995 23.8588 62.7231C23.8588 62.9513 23.9647 63.1947 24.2274 63.3715C24.4732 63.5369 24.8758 63.6776 25.3843 63.727L26.8549 63.8791C27.9928 63.9932 28.7111 64.2233 29.2366 64.5788C29.902 65.037 30.2007 65.6987 30.2007 66.4992C30.2007 68.2541 28.1856 69.2466 25.5752 69.2466" fill="#213F7B"/>
<path fill-rule="evenodd" clip-rule="evenodd" d="M37.2589 61.6945V69.1725H34.8242V61.6945H31.5654V60.1164H40.5158V61.6945H37.2589Z" fill="#213F7B"/>
<path fill-rule="evenodd" clip-rule="evenodd" d="M48.54 69.1725L47.8046 67.5696H43.372L42.6197 69.1725H40.0792L44.6158 60.1183H46.5249L51.0786 69.1725H48.5381H48.54ZM45.6327 62.7878L44.0563 66.0809H47.1563L45.6327 62.7878Z" fill="#213F7B"/>
<path fill-rule="evenodd" clip-rule="evenodd" d="M59.9949 69.1725L55.0557 63.6148V69.1725H52.621V60.1164H54.7929L59.7322 65.6626V60.1164H62.1668V69.1725H59.9949Z" fill="#213F7B"/>
<path d="M67.5106 60.1164H65.0759V69.1706H67.5106V60.1164Z" fill="#213F7B"/>
<path fill-rule="evenodd" clip-rule="evenodd" d="M16.8422 74.4677V72.3192L15.9368 73.7166H15.3111L14.4 72.3192V74.4677H13.4757V70.7829H14.3868L15.6249 72.7755L16.8554 70.7829H17.7684V74.4677H16.8422Z" fill="#4A84BA"/>
<path fill-rule="evenodd" clip-rule="evenodd" d="M21.5679 74.4677L21.2881 73.8155H19.6039L19.3184 74.4677H18.3525L20.0764 70.781H20.8023L22.5319 74.4677H21.566H21.5679ZM20.4639 71.8685L19.8647 73.209H21.0424L20.4639 71.8685Z" fill="#4A84BA"/>
<path fill-rule="evenodd" clip-rule="evenodd" d="M23.1179 74.4677V70.7829H24.0422V73.8269H26.1914V74.4677H23.1179Z" fill="#4A84BA"/>
<path fill-rule="evenodd" clip-rule="evenodd" d="M26.9437 74.4677V70.7829H30.0646V71.4236H27.8681V72.2887H29.7394V72.9314H27.8681V73.8269H30.0646V74.4677H26.9437Z" fill="#4A84BA"/>
<path fill-rule="evenodd" clip-rule="evenodd" d="M33.4859 74.4677L32.5616 72.9979H31.8962V74.4677H30.9719V70.781H32.8281C33.794 70.781 34.3649 71.2943 34.3649 71.9104C34.3649 72.4275 33.9585 72.7489 33.4992 72.8782L34.5577 74.4677H33.4859ZM32.7676 71.4236H31.8962V72.3971H32.7676C33.174 72.3971 33.4406 72.1956 33.4406 71.9104C33.4406 71.6252 33.174 71.4236 32.7676 71.4236Z" fill="#4A84BA"/>
<path fill-rule="evenodd" clip-rule="evenodd" d="M39.7862 74.0798C39.4213 74.3688 38.9809 74.5 38.4479 74.5C37.9148 74.5 37.516 74.365 37.17 74.0969C36.964 73.9372 36.8374 73.7509 36.7844 73.5436C36.7315 73.3364 36.705 73.0322 36.705 72.6272C36.705 72.2222 36.7315 71.918 36.7844 71.7107C36.8374 71.4978 36.964 71.3172 37.17 71.1574C37.516 70.8875 37.9413 70.7544 38.4479 70.7544C39.5253 70.7544 40.1056 71.2924 40.2323 71.9351H39.3004C39.187 71.5776 38.9072 71.397 38.4479 71.397C38.2021 71.397 38.0018 71.4636 37.8562 71.5929C37.6823 71.764 37.6294 71.899 37.6294 72.6272C37.6294 73.3554 37.6691 73.4961 37.8562 73.6672C37.9961 73.7965 38.1965 73.8592 38.4479 73.8592C38.7201 73.8592 38.9412 73.7927 39.1057 73.652C39.2455 73.5284 39.3193 73.363 39.3193 73.1596V73.0208H38.4479V72.4199H40.2379V72.958C40.2379 73.4961 40.1113 73.8117 39.7862 74.0817" fill="#4A84BA"/>
<path fill-rule="evenodd" clip-rule="evenodd" d="M44.4721 74.4677V72.3192L43.5667 73.7166H42.941L42.0299 72.3192V74.4677H41.1037V70.7829H42.0167L43.2548 72.7755L44.4853 70.7829H45.3965V74.4677H44.4721Z" fill="#4A84BA"/>
<path fill-rule="evenodd" clip-rule="evenodd" d="M48.4851 74.4677H46.5023V70.781H48.4057C49.3301 70.781 49.8707 71.1841 49.8707 71.8172C49.8707 72.226 49.5248 72.4903 49.2847 72.5777C49.5701 72.6804 49.9369 72.9143 49.9369 73.4067C49.9369 74.095 49.332 74.4677 48.4851 74.4677ZM48.332 71.4236H47.4266V72.2735H48.332C48.7252 72.2735 48.9445 72.1024 48.9445 71.8495C48.9445 71.5967 48.7252 71.4255 48.332 71.4255V71.4236ZM48.3925 72.92H47.4285V73.825H48.3925C48.8121 73.825 49.0125 73.6178 49.0125 73.3687C49.0125 73.1196 48.8121 72.9181 48.3925 72.9181V72.92Z" fill="#4A84BA"/>
<path fill-rule="evenodd" clip-rule="evenodd" d="M53.4093 74.4677V72.9257H51.8044V74.4677H50.8801V70.7829H51.8044V72.2887H53.4093V70.7829H54.3336V74.4677H53.4093Z" fill="#4A84BA"/>
<path d="M69.1608 60.8028H69.7449C69.8394 60.8028 69.9207 60.8142 69.9868 60.8389C70.053 60.8636 70.1059 60.8959 70.1475 60.9378C70.2193 61.0081 70.2571 61.1051 70.2571 61.2268V61.2306C70.2571 61.3256 70.2344 61.4055 70.1891 61.4682C70.1437 61.531 70.0813 61.5785 70.0038 61.6127L70.2987 62.0443H69.9037L69.656 61.6679H69.5067V62.0443H69.1646V60.8028H69.1608ZM69.7279 61.3979C69.7865 61.3979 69.8318 61.3846 69.864 61.358C69.8961 61.3313 69.9112 61.2952 69.9112 61.2515V61.2477C69.9112 61.1982 69.8942 61.1621 69.8621 61.1374C69.8299 61.1127 69.7846 61.1013 69.726 61.1013H69.5029V61.3979H69.7298H69.7279Z" fill="#213F7B"/>
<path d="M69.6504 62.7878C68.9075 62.7878 68.3007 62.1793 68.3007 61.4302C68.3007 60.6811 68.9056 60.0727 69.6504 60.0727C70.3951 60.0727 71 60.6811 71 61.4302C71 62.1793 70.3951 62.7878 69.6504 62.7878ZM69.6504 60.4529C69.1135 60.4529 68.6788 60.8921 68.6788 61.4302C68.6788 61.9683 69.1154 62.4075 69.6504 62.4075C70.1853 62.4075 70.6219 61.9683 70.6219 61.4302C70.6219 60.8921 70.1853 60.4529 69.6504 60.4529Z" fill="#213F7B"/>
</g>
<defs>
<clipPath id="clip0_2_14">
<rect width="71" height="74" fill="white" transform="translate(0 0.5)"/>
</clipPath>
</defs>
</svg>
